{"title":"The Thing (2011) 1080p MKV x264 AC3+DTS Eng NL Subs","uid":6965067,"size":8702516210,"categoryP":"video","categoryS":"hd___movies","magnet":"?xt=urn:btih:02ec53858ee37c39192b30c45778f6000ae9b845&amp;dn=The+Thing+%282011%29+1080p+MKV+x264+AC3%2BDTS+Eng+NL+Subs&amp;tr=udp%3A%2F%2Ftracker.openbittorrent.com%3A80&amp;tr=udp%3A%2F%2Fopen.demonii.com%3A1337&amp;tr=udp%3A%2F%2Ftracker.coppersurfer.tk%3A6969&amp;tr=udp%3A%2F%2Fexodus.desync.com%3A6969","seeders":0,"leechers":3,"uploader":"NLUPPER002","files":-1,"time":1326896364,"description":"The Thing (2011) 1080p MKV x264 AC3+DTS Eng NL Subs\n.\n[IMG]http://img690.imageshack.us/img690/6236/tt2011.jpg[/IMG]\n.\nVerenigde Staten / Canada\nHorror / Mystery\n103 minuten\n\ngeregisseerd door Matthijs van Heijningen Jr.\nmet Mary Elizabeth Winstead, Eric Christian Olsen en Joel Edgerton\n\nIn een onderzoekskamp op Antartica leidt de ontdekking van een buitenaards schip tot een confrontatie tussen de studente Kate Lloyd en de wetenschapper Dr. Sander Halvorson. Terwijl Dr. Halvorson zich blijft richten op zijn onderzoek gaat Kate samen met de helikopterpiloot Sam Carter op zoek naar de buitenaardse levensvorm.\n\nVanaf 28 februari te huur\nVanaf 22 februari te koop op DVD en Blu-Ray\n. &lt;a href=&quot;\nhttp://www.moviemeter.nl/film/70576&quot; rel=&quot;nofollow&quot; target=&quot;_NEW&quot;&gt;\nhttp://www.moviemeter.nl/film/70576&lt;/a&gt;\n.\nPLOT\n.\nAt an Antarctica research site, the discovery of an alien craft leads to a confrontation between graduate student Kate Lloyd and scientist Dr. Sander Halvorson. \n. &lt;a href=&quot;\nhttp://www.imdb.com/title/tt0905372/&quot; rel=&quot;nofollow&quot; target=&quot;_NEW&quot;&gt;\nhttp://www.imdb.com/title/tt0905372/&lt;/a&gt;\n.\nINFO\n.\nFormat                           : Matroska\nFormat version                   : Version 2\nFile size                        : 8.10 GiB\nDuration                         : 1h 43mn\nOverall bit rate                 : 11.3 Mbps\nEncoded date                     : UTC 2012-01-18 13:17:03\nWriting application              : mkvmerge v5.2.0 ('I can't explain') built on Dec 18 2011 18:12:03\nWriting library                  : libebml v1.2.3 + libmatroska v1.3.0\n\nVideo\nID                               : 1\nFormat                           : AVC\nFormat/Info                      : Advanced Video Codec\nFormat profile                   : &lt;a class=&quot;__cf_email__&quot; href=&quot;/cdn-cgi/l/email-protection&quot; data-cfemail=&quot;d199b8b6b9919de5ffe0&quot;&gt;[email&amp;#160;protected]&lt;/a&gt;&lt;script cf-hash='f9e31' type=&quot;text/javascript&quot;&gt;\n/* &lt;![CDATA[ */!function(){try{var t=&quot;currentScript&quot;in document?document.currentScript:function(){for(var t=document.getElementsByTagName(&quot;script&quot;),e=t.length;e--;)if(t[e].getAttribute(&quot;cf-hash&quot;))return t[e]}();if(t&amp;&amp;t.previousSibling){var e,r,n,i,c=t.previousSibling,a=c.getAttribute(&quot;data-cfemail&quot;);if(a){for(e=&quot;&quot;,r=parseInt(a.substr(0,2),16),n=2;a.length-n;n+=2)i=parseInt(a.substr(n,2),16)^r,e+=String.fromCharCode(i);e=document.createTextNode(e),c.parentNode.replaceChild(e,c)}}}catch(u){}}();/* ]]&gt; */&lt;/script&gt;\nFormat settings, CABAC           : Yes\nFormat settings, ReFrames        : 5 frames\nCodec ID                         : V_MPEG4/ISO/AVC\nDuration                         : 1h 43mn\nBit rate                         : 9 115 Kbps\nWidth                            : 1 920 pixels\nHeight                           : 800 pixels\nDisplay aspect ratio             : 2.40:1\nFrame rate                       : 23.976 fps\nColor space                      : YUV\nChroma subsampling               : 4:2:0\nBit depth                        : 8 bits\nScan type                        : Progressive\nBits/(Pixel*Frame)               : 0.248\nStream size                      : 6.40 GiB (79%)\nWriting library                  : x264 core 120 r2145 748fe16\nEncoding settings                : cabac=1 / ref=5 / deblock=1:0:0 / analyse=0x3:0x133 / me=umh / subme=7 / psy=1 / psy_rd=1.00:0.00 / mixed_ref=1 / me_range=16 / chroma_me=1 / trellis=1 / 8x8dct=1 / cqm=0 / deadzone=21,11 / fast_pskip=0 / chroma_qp_offset=-2 / threads=12 / sliced_threads=0 / nr=0 / decimate=1 / interlaced=0 / bluray_compat=0 / constrained_intra=0 / bframes=3 / b_pyramid=2 / b_adapt=1 / b_bias=0 / direct=1 / weightb=1 / open_gop=0 / weightp=2 / keyint=250 / keyint_min=23 / scenecut=40 / intra_refresh=0 / rc_lookahead=40 / rc=2pass / mbtree=1 / bitrate=9115 / ratetol=1.0 / qcomp=0.60 / qpmin=0 / qpmax=69 / qpstep=4 / cplxblur=20.0 / qblur=0.5 / ip_ratio=1.40 / aq=1:1.00\nLanguage                         : English\nDefault                          : Yes\nForced                           : No\n\nAudio #1\nID                               : 2\nFormat                           : DTS\nFormat/Info                      : Digital Theater Systems\nCodec ID                         : A_DTS\nDuration                         : 1h 43mn\nBit rate mode                    : Constant\nBit rate                         : 1 510 Kbps\nChannel(s)                       : 6 channels\nChannel positions                : Front: L C R, Side: L R, LFE\nSampling rate                    : 48.0 KHz\nBit depth                        : 24 bits\nCompression mode                 : Lossy\nStream size                      : 1.09 GiB (13%)\nTitle                            : DTS\nLanguage                         : English\nDefault                          : Yes\nForced                           : No\n\nAudio #2\nID                               : 3\nFormat                           : AC-3\nFormat/Info                      : Audio Coding 3\nMode extension                   : CM (complete main)\nCodec ID                         : A_AC3\nDuration                         : 1h 43mn\nBit rate mode                    : Constant\nBit rate                         : 640 Kbps\nChannel(s)                       : 6 channels\nChannel positions                : Front: L C R, Side: L R, LFE\nSampling rate                    : 48.0 KHz\nBit depth                        : 16 bits\nCompression mode                 : Lossy\nStream size                      : 472 MiB (6%)\nTitle                            : AC3\nLanguage                         : English\nDefault                          : No\nForced                           : No\n\nText #1\nID                               : 4\nFormat                           : UTF-8\nCodec ID                         : S_TEXT/UTF8\nCodec ID/Info                    : UTF-8 Plain Text\nLanguage                         : English\nDefault                          : Yes\nForced                           : No\n\nText #2\nID                               : 5\nFormat                           : UTF-8\nCodec ID                         : S_TEXT/UTF8\nCodec ID/Info                    : UTF-8 Plain Text\nLanguage                         : Dutch\nDefault                          : No\nForced                           : No\n.\nEnjoy\n.\n","torrent":{"xt":"urn:btih:02ec53858ee37c39192b30c45778f6000ae9b845","amp;dn":"The+Thing+%282011%29+1080p+MKV+x264+AC3%2BDTS+Eng+NL+Subs","amp;tr":["udp%3A%2F%2Ftracker.openbittorrent.com%3A80","udp%3A%2F%2Fopen.demonii.com%3A1337","udp%3A%2F%2Ftracker.coppersurfer.tk%3A6969","udp%3A%2F%2Fexodus.desync.com%3A6969"],"infoHash":"02ec53858ee37c39192b30c45778f6000ae9b845","infoHashBuffer":{"type":"Buffer","data":[2,236,83,133,142,227,124,57,25,43,48,196,87,120,246,0,10,233,184,69]},"announce":[],"urlList":[]}}